<svg width="36" height="36" viewBox="0 0 36 36" fill="none" xmlns="http://www.w3.org/2000/svg">
<path fill-rule="evenodd" clip-rule="evenodd" d="M17.9943 0.537354C13.7719 0.539544 9.68791 2.03504 6.47266 4.75643C3.25742 7.47782 1.12054 11.2476 0.444136 15.3918C-0.232273 19.536 0.595885 23.7843 2.78054 27.377C4.9652 30.9698 8.36389 33.6727 12.3689 35.0026C13.2525 35.1666 13.5853 34.6189 13.5853 34.1533C13.5853 33.6877 13.5676 32.3377 13.5617 30.8617C8.61372 31.9306 7.56817 28.7737 7.56817 28.7737C6.76118 26.7238 5.59487 26.1849 5.59487 26.1849C3.98088 25.0897 5.71563 25.1102 5.71563 25.1102C7.50338 25.2361 8.44291 26.9346 8.44291 26.9346C10.0274 29.6376 12.6045 28.8557 13.6177 28.3989C13.7767 27.2538 14.2391 26.4749 14.7486 26.0327C10.7961 25.5875 6.64337 24.0706 6.64337 17.2941C6.61887 15.5366 7.27475 13.8371 8.47531 12.547C8.2927 12.1019 7.68303 10.3038 8.64907 7.86147C8.64907 7.86147 10.1423 7.38706 13.5411 9.6742C16.4564 8.8815 19.5322 8.8815 22.4475 9.6742C25.8433 7.38706 27.3336 7.86147 27.3336 7.86147C28.3026 10.298 27.6929 12.096 27.5103 12.547C28.7147 13.8373 29.3719 15.5398 29.3452 17.2999C29.3452 24.0911 25.1836 25.5875 21.2252 26.0239C21.8614 26.5744 22.4298 27.6492 22.4298 29.3008C22.4298 31.667 22.4092 33.5705 22.4092 34.1533C22.4092 34.6248 22.7302 35.1753 23.6314 35.0026C27.6369 33.6726 31.0359 30.9691 33.2205 27.3758C35.4052 23.7824 36.2329 19.5335 35.5557 15.3889C34.8785 11.2444 32.7406 7.47451 29.5243 4.75359C26.308 2.03267 22.2231 0.538156 18.0002 0.537354H17.9943Z" fill="#191717"/>
<path d="M6.94358 25.9302C6.9053 26.018 6.76392 26.0444 6.64906 25.9829C6.5342 25.9214 6.44879 25.8072 6.49003 25.7164C6.53126 25.6256 6.66968 25.6022 6.78455 25.6637C6.89941 25.7252 6.98776 25.8423 6.94358 25.9302Z" fill="#191717"/>
<path d="M7.66523 26.7296C7.60424 26.7601 7.53445 26.7687 7.46783 26.7537C7.40121 26.7387 7.3419 26.7012 7.30003 26.6476C7.18516 26.5246 7.16159 26.3547 7.24994 26.2786C7.3383 26.2025 7.49735 26.2376 7.61222 26.3606C7.72708 26.4836 7.75359 26.6534 7.66523 26.7296Z" fill="#191717"/>
<path d="M8.36617 27.746C8.25719 27.8221 8.07163 27.746 7.96855 27.5937C7.94005 27.5664 7.91738 27.5336 7.90189 27.4974C7.88641 27.4611 7.87842 27.4222 7.87842 27.3828C7.87842 27.3435 7.88641 27.3045 7.90189 27.2683C7.91738 27.232 7.94005 27.1993 7.96855 27.172C8.07752 27.0988 8.26308 27.172 8.36617 27.3213C8.46925 27.4707 8.47219 27.6698 8.36617 27.746Z" fill="#191717"/>
<path d="M9.31752 28.7297C9.22033 28.8381 9.02301 28.8088 8.86102 28.6623C8.69903 28.5159 8.66073 28.3168 8.75793 28.2114C8.85512 28.1059 9.05245 28.1352 9.22033 28.2787C9.38821 28.4222 9.42061 28.6243 9.31752 28.7297Z" fill="#191717"/>
<path d="M10.6516 29.3037C10.6074 29.4414 10.4071 29.5029 10.2069 29.4443C10.0066 29.3857 9.87406 29.2217 9.91235 29.0811C9.95064 28.9406 10.1539 28.8762 10.3571 28.9406C10.5603 29.005 10.6899 29.1602 10.6516 29.3037Z" fill="#191717"/>
<path d="M12.1066 29.4033C12.1066 29.5468 11.9416 29.6698 11.7296 29.6727C11.5175 29.6756 11.3438 29.5585 11.3438 29.415C11.3438 29.2715 11.5087 29.1485 11.7207 29.1456C11.9328 29.1426 12.1066 29.2568 12.1066 29.4033Z" fill="#191717"/>
<path d="M13.4616 29.1778C13.4881 29.3212 13.3408 29.4706 13.1288 29.5057C12.9167 29.5409 12.7312 29.456 12.7046 29.3154C12.6781 29.1748 12.8313 29.0225 13.0375 28.9845C13.2436 28.9464 13.4351 29.0343 13.4616 29.1778Z" fill="#191717"/>
</svg>
